<?xml version="1.0" encoding="UTF-8"?>
<svg width="94px" height="279px" viewBox="0 0 94 279" version="1.1" xmlns="http://www.w3.org/2000/svg" xmlns:xlink="http://www.w3.org/1999/xlink">
    <!-- Generator: Sketch 42 (36781) - http://www.bohemiancoding.com/sketch -->
    <title>Group</title>
    <desc>Created with Sketch.</desc>
    <defs>
        <linearGradient x1="50%" y1="-8.04061325e-15%" x2="50%" y2="100%" id="linearGradient-1">
            <stop stop-color="#847E7E" offset="0%"></stop>
            <stop stop-color="#B3ABAB" offset="16.1790497%"></stop>
            <stop stop-color="#7E7474" offset="38.6160714%"></stop>
            <stop stop-color="#B3ABAB" offset="65.4575893%"></stop>
            <stop stop-color="#847E7E" offset="100%"></stop>
        </linearGradient>
        <linearGradient x1="50%" y1="-8.04061325e-15%" x2="50%" y2="92.6757812%" id="linearGradient-2">
            <stop stop-color="#A69D9D" offset="0%"></stop>
            <stop stop-color="#AEA5A5" offset="23.2661033%"></stop>
            <stop stop-color="#7F7F7F" offset="39.1282685%"></stop>
            <stop stop-color="#CDC4C4" offset="72.7778221%"></stop>
            <stop stop-color="#A69D9D" offset="100%"></stop>
        </linearGradient>
        <rect id="path-3" x="16.8398789" y="3.72571594" width="29.7071479" height="59.9354739" rx="5"></rect>
        <mask id="mask-4" maskContentUnits="userSpaceOnUse" maskUnits="objectBoundingBox" x="0" y="0" width="29.7071479" height="59.9354739" fill="white">
            <use xlink:href="#path-3"></use>
        </mask>
    </defs>
    <g id="Page-1" stroke="none" stroke-width="1" fill="none" fill-rule="evenodd">
        <g id="Group" transform="translate(-1.984731, -1.965994)">
            <path d="M56.7431682,45.9127996 C56.7521199,43.6986831 58.4877506,41.4361062 60.6185793,40.8595251 L71.0975844,38.0240103 C73.2289632,37.4472803 74.9567871,38.7745793 74.9567871,40.9731109 L74.9567871,277.722904 C74.9567871,279.928377 73.1708818,281.7002 70.9622382,281.680331 L59.7850631,281.579779 C57.5789346,281.559932 55.7977557,279.752701 55.8067225,277.534831 L56.7431682,45.9127996 Z" id="Rectangle-2" fill="url(#linearGradient-1)" style="mix-blend-mode: luminosity;" transform="translate(65.381738, 159.784830) rotate(350.000000) translate(-65.381738, -159.784830) "></path>
            <rect id="Rectangle-2" fill="url(#linearGradient-2)" style="mix-blend-mode: luminosity;" transform="translate(63.202517, 156.196543) rotate(350.000000) translate(-63.202517, -156.196543) " x="54.5379321" y="33.8282841" width="17.3291696" height="244.736518" rx="4"></rect>
            <path d="M21.5575893,14.5467378 C21.7513618,11.7871534 24.0700896,8.96389807 26.7344195,8.24141531 L45.5314067,3.14426154 C48.1967186,2.4215125 50.3970226,4.07091226 50.4461793,6.84273506 L51.3824135,59.634618 C51.4314556,62.3999776 49.2435348,64.75956 46.4838022,64.9055145 L22.9028144,66.1526467 C20.148344,66.2983228 18.0719365,64.1871885 18.2662606,61.4197472 L21.5575893,14.5467378 Z" id="Rectangle-2" fill="#434242" transform="translate(34.818441, 34.567076) rotate(315.000000) translate(-34.818441, -34.567076) "></path>
            <use id="Rectangle-2" stroke="#979797" mask="url(#mask-4)" stroke-width="2" fill="#595959" transform="translate(31.693453, 33.693453) rotate(315.000000) translate(-31.693453, -33.693453) " xlink:href="#path-3"></use>
        </g>
    </g>
</svg>